# xmcd CD database file
#
# Track frame offsets:
#	151
#	19357
#	35171
#	54217
#	68102
#	81222
#	97097
#	106014
#	130668
#	140869
#	163681
#	179145
#	192989
#	208792
#	226783
#	238961
#
# Disc length: 3996 seconds
#
# Revision: 0
# Processed by: cddbd v1.5.1PL0 Copyright (c) Steve Scherf et al.
# Submitted via: CDex 1.51
#
DISCID=ea0f9a10
DTITLE=Yella Schwarzer - Aile
DYEAR=2004
DGENRE=Jazz
TTITLE0=Aile
TTITLE1=Aqua de beber
TTITLE2=Chega de saudade
TTITLE3=Night and day
TTITLE4=God bless the child
TTITLE5=Baby, I love you
TTITLE6=Sister Sadie
TTITLE7=Calling You
TTITLE8=Wisper not
TTITLE9=You go to my head
TTITLE10=Time after time
TTITLE11=Take five
TTITLE12=Chove chuva
TTITLE13=Just the two of us
TTITLE14=Late at night
TTITLE15=Pleurer des rivières
EXTD=YEAR: 2004
EXTT0=
EXTT1=
EXTT2=
EXTT3=
EXTT4=
EXTT5=
EXTT6=
EXTT7=
EXTT8=
EXTT9=
EXTT10=
EXTT11=
EXTT12=
EXTT13=
EXTT14=
EXTT15=
PLAYORDER=
